<mxfile host="app.diagrams.net" modified="2023-11-09T08:54:45.390Z" agent="Mozilla/5.0 (Windows NT 10.0; Win64; x64) AppleWebKit/537.36 (KHTML, like Gecko) Chrome/119.0.0.0 Safari/537.36" etag="ZbTANw2ZqjOTxAZiDwHq" version="22.1.0" type="device">
  <diagram name="Page-1" id="aqY4QlIoyZ5WwhuJ00_y">
    <mxGraphModel dx="3176" dy="1712" grid="1" gridSize="10" guides="1" tooltips="1" connect="1" arrows="1" fold="1" page="1" pageScale="1" pageWidth="1100" pageHeight="850" background="none" math="0" shadow="1">
      <root>
        <mxCell id="0" />
        <mxCell id="1" parent="0" />
        <mxCell id="2EiwIm94E3lQVCfyGoVk-1" value="" style="shape=datastore;whiteSpace=wrap;html=1;labelBackgroundColor=none;rounded=1;fillColor=#f5f5f5;strokeColor=#666666;fontColor=#333333;" parent="1" vertex="1">
          <mxGeometry x="60" y="70" width="170" height="170" as="geometry" />
        </mxCell>
        <mxCell id="2EiwIm94E3lQVCfyGoVk-2" value="" style="rounded=0;whiteSpace=wrap;html=1;fillColor=#d5e8d4;strokeColor=#82b366;" parent="1" vertex="1">
          <mxGeometry x="340" y="80" width="300" height="150" as="geometry" />
        </mxCell>
        <mxCell id="2EiwIm94E3lQVCfyGoVk-3" value="" style="rounded=0;whiteSpace=wrap;html=1;fillColor=#e1d5e7;strokeColor=#9673a6;" parent="1" vertex="1">
          <mxGeometry x="750" y="80" width="300" height="150" as="geometry" />
        </mxCell>
        <mxCell id="2EiwIm94E3lQVCfyGoVk-6" value="" style="rounded=0;whiteSpace=wrap;html=1;fillColor=#d5e8d4;strokeColor=#82b366;" parent="1" vertex="1">
          <mxGeometry x="390" y="560" width="300" height="150" as="geometry" />
        </mxCell>
        <mxCell id="2EiwIm94E3lQVCfyGoVk-7" value="" style="rounded=0;whiteSpace=wrap;html=1;fillColor=#e1d5e7;strokeColor=#9673a6;" parent="1" vertex="1">
          <mxGeometry x="750" y="560" width="300" height="150" as="geometry" />
        </mxCell>
        <mxCell id="2EiwIm94E3lQVCfyGoVk-8" value="" style="rounded=0;whiteSpace=wrap;html=1;fillColor=#f5f5f5;strokeColor=#666666;fontColor=#333333;" parent="1" vertex="1">
          <mxGeometry x="30" y="560" width="300" height="150" as="geometry" />
        </mxCell>
        <mxCell id="ZqFYflUYz0K0lzLpfq6o-1" value="&lt;font style=&quot;font-size: 30px;&quot;&gt;Preprocessing&lt;br&gt;missing values&lt;/font&gt;" style="text;html=1;strokeColor=none;fillColor=none;align=center;verticalAlign=middle;whiteSpace=wrap;rounded=0;fontSize=16;" vertex="1" parent="1">
          <mxGeometry x="360" y="100" width="260" height="110" as="geometry" />
        </mxCell>
        <mxCell id="ZqFYflUYz0K0lzLpfq6o-2" value="&lt;span style=&quot;font-size: 30px;&quot;&gt;Apply&lt;br&gt;oversampling&lt;br&gt;techniques&lt;/span&gt;" style="text;html=1;strokeColor=none;fillColor=none;align=center;verticalAlign=middle;whiteSpace=wrap;rounded=0;fontSize=16;" vertex="1" parent="1">
          <mxGeometry x="760" y="90" width="280" height="130" as="geometry" />
        </mxCell>
        <mxCell id="ZqFYflUYz0K0lzLpfq6o-3" value="&lt;span style=&quot;font-size: 30px;&quot;&gt;Validation with&lt;br&gt;performance&lt;br&gt;measure&lt;br&gt;&lt;/span&gt;" style="text;html=1;strokeColor=#666666;fillColor=#f5f5f5;align=center;verticalAlign=middle;whiteSpace=wrap;rounded=0;fontSize=16;fontColor=#333333;" vertex="1" parent="1">
          <mxGeometry x="30" y="560" width="300" height="150" as="geometry" />
        </mxCell>
        <mxCell id="ZqFYflUYz0K0lzLpfq6o-4" value="&lt;span style=&quot;font-size: 30px;&quot;&gt;Machine&lt;br&gt;learning based&lt;br&gt;classifiers&lt;/span&gt;" style="text;html=1;strokeColor=none;fillColor=none;align=center;verticalAlign=middle;whiteSpace=wrap;rounded=0;fontSize=16;" vertex="1" parent="1">
          <mxGeometry x="410" y="570" width="270" height="130" as="geometry" />
        </mxCell>
        <mxCell id="ZqFYflUYz0K0lzLpfq6o-5" value="&lt;span style=&quot;font-size: 30px;&quot;&gt;Feature&lt;br&gt;selection&lt;/span&gt;" style="text;html=1;strokeColor=none;fillColor=none;align=center;verticalAlign=middle;whiteSpace=wrap;rounded=0;fontSize=16;" vertex="1" parent="1">
          <mxGeometry x="760" y="580" width="260" height="110" as="geometry" />
        </mxCell>
        <mxCell id="ZqFYflUYz0K0lzLpfq6o-7" value="&lt;font style=&quot;font-size: 30px;&quot;&gt;Collecting&lt;br&gt;Data&lt;br&gt;&lt;/font&gt;" style="text;html=1;strokeColor=none;fillColor=none;align=center;verticalAlign=middle;whiteSpace=wrap;rounded=0;fontSize=16;" vertex="1" parent="1">
          <mxGeometry x="70" y="130" width="150" height="120" as="geometry" />
        </mxCell>
        <mxCell id="ZqFYflUYz0K0lzLpfq6o-8" value="" style="endArrow=classic;html=1;rounded=0;fontSize=12;startSize=8;endSize=8;curved=1;exitX=1;exitY=0.5;exitDx=0;exitDy=0;entryX=0;entryY=0.5;entryDx=0;entryDy=0;" edge="1" parent="1" source="2EiwIm94E3lQVCfyGoVk-1" target="2EiwIm94E3lQVCfyGoVk-2">
          <mxGeometry width="50" height="50" relative="1" as="geometry">
            <mxPoint x="540" y="370" as="sourcePoint" />
            <mxPoint x="590" y="320" as="targetPoint" />
          </mxGeometry>
        </mxCell>
        <mxCell id="ZqFYflUYz0K0lzLpfq6o-9" value="" style="endArrow=classic;html=1;rounded=0;fontSize=12;startSize=8;endSize=8;curved=1;exitX=1;exitY=0.5;exitDx=0;exitDy=0;entryX=0;entryY=0.5;entryDx=0;entryDy=0;" edge="1" parent="1" source="2EiwIm94E3lQVCfyGoVk-2" target="2EiwIm94E3lQVCfyGoVk-3">
          <mxGeometry width="50" height="50" relative="1" as="geometry">
            <mxPoint x="240" y="165" as="sourcePoint" />
            <mxPoint x="350" y="165" as="targetPoint" />
          </mxGeometry>
        </mxCell>
        <mxCell id="ZqFYflUYz0K0lzLpfq6o-10" value="" style="endArrow=classic;html=1;rounded=0;fontSize=12;startSize=8;endSize=8;curved=1;exitX=0.5;exitY=1;exitDx=0;exitDy=0;entryX=0.5;entryY=0;entryDx=0;entryDy=0;" edge="1" parent="1" source="2EiwIm94E3lQVCfyGoVk-3" target="2EiwIm94E3lQVCfyGoVk-5">
          <mxGeometry width="50" height="50" relative="1" as="geometry">
            <mxPoint x="650" y="165" as="sourcePoint" />
            <mxPoint x="750" y="165" as="targetPoint" />
          </mxGeometry>
        </mxCell>
        <mxCell id="ZqFYflUYz0K0lzLpfq6o-12" value="" style="endArrow=classic;html=1;rounded=0;fontSize=12;startSize=8;endSize=8;curved=1;exitX=0.5;exitY=1;exitDx=0;exitDy=0;entryX=0.5;entryY=0;entryDx=0;entryDy=0;" edge="1" parent="1" source="2EiwIm94E3lQVCfyGoVk-5" target="2EiwIm94E3lQVCfyGoVk-7">
          <mxGeometry width="50" height="50" relative="1" as="geometry">
            <mxPoint x="900" y="240" as="sourcePoint" />
            <mxPoint x="900" y="370" as="targetPoint" />
          </mxGeometry>
        </mxCell>
        <mxCell id="ZqFYflUYz0K0lzLpfq6o-14" value="" style="endArrow=classic;html=1;rounded=0;fontSize=12;startSize=8;endSize=8;curved=1;exitX=0;exitY=0.5;exitDx=0;exitDy=0;entryX=1;entryY=0.5;entryDx=0;entryDy=0;" edge="1" parent="1" source="2EiwIm94E3lQVCfyGoVk-6" target="2EiwIm94E3lQVCfyGoVk-8">
          <mxGeometry width="50" height="50" relative="1" as="geometry">
            <mxPoint x="450" y="500" as="sourcePoint" />
            <mxPoint x="500" y="450" as="targetPoint" />
          </mxGeometry>
        </mxCell>
        <mxCell id="ZqFYflUYz0K0lzLpfq6o-15" value="" style="endArrow=classic;html=1;rounded=0;fontSize=12;startSize=8;endSize=8;curved=1;exitX=0;exitY=0.5;exitDx=0;exitDy=0;entryX=1;entryY=0.5;entryDx=0;entryDy=0;" edge="1" parent="1" source="2EiwIm94E3lQVCfyGoVk-7" target="2EiwIm94E3lQVCfyGoVk-6">
          <mxGeometry width="50" height="50" relative="1" as="geometry">
            <mxPoint x="450" y="500" as="sourcePoint" />
            <mxPoint x="500" y="450" as="targetPoint" />
          </mxGeometry>
        </mxCell>
        <mxCell id="2EiwIm94E3lQVCfyGoVk-5" value="" style="rounded=0;whiteSpace=wrap;html=1;fillColor=#f8cecc;strokeColor=#b85450;" parent="1" vertex="1">
          <mxGeometry x="750" y="365" width="300" height="80" as="geometry" />
        </mxCell>
        <mxCell id="ZqFYflUYz0K0lzLpfq6o-16" value="&lt;span style=&quot;font-size: 30px;&quot;&gt;Normalization&lt;br&gt;&lt;/span&gt;" style="text;html=1;strokeColor=none;fillColor=none;align=center;verticalAlign=middle;whiteSpace=wrap;rounded=0;fontSize=16;" vertex="1" parent="1">
          <mxGeometry x="760" y="370" width="280" height="70" as="geometry" />
        </mxCell>
      </root>
    </mxGraphModel>
  </diagram>
</mxfile>
